<svg xmlns="http://www.w3.org/2000/svg" viewBox="0 0 115.89 51.08"><defs><style>.cls-1{fill:#fff;}</style></defs><g id="Camada_2" data-name="Camada 2"><g id="Layer_1" data-name="Layer 1"><polygon class="cls-1" points="37.43 2.29 33.31 34.17 41.16 34.04 45.28 2.16 37.43 2.29"/><path class="cls-1" d="M66.57,16.76a10.66,10.66,0,0,0-2.11-1.44,12.81,12.81,0,0,0-1.93-.84L60.36,14c-.54-.19-2.41.07-3.24-1.89a3.52,3.52,0,0,1,.06-2.38c.48-1.25,1.61-1.79,3.37-1.74A3.74,3.74,0,0,1,63.08,9.2a6.28,6.28,0,0,1,1,2.25l7.27-1.78a11.81,11.81,0,0,0-4.81-6c-2.09-1.33-5-1.56-7.95-1.51-3.82.06-6,1.07-7.86,3s-5.48,8.1-.4,12.81c1,.59,5.34,2.59,8.07,2.84a3.67,3.67,0,0,1,2,1.12A3.63,3.63,0,0,1,61,23.7,2.92,2.92,0,0,1,60.82,25a2.62,2.62,0,0,1-1.11,1.43,4.73,4.73,0,0,1-2.57.45c-2.23-.18-3.69-1.25-5.59-3l-7.17,1.59a11.16,11.16,0,0,0,5,6.39,15.48,15.48,0,0,0,8.21,2,12.38,12.38,0,0,0,8.72-3.17,10,10,0,0,0,3.16-7.74,8.59,8.59,0,0,0-.7-3.33A7.91,7.91,0,0,0,66.57,16.76Z"/><path class="cls-1" d="M93.4,6.61l.54-4.35H78.49l-4.33,16,2.37,1.58a8.91,8.91,0,0,1,5.08-1.75,4.86,4.86,0,0,1,5.09,4.68,5.82,5.82,0,0,1-5.12,6.78c-2.41.33-5-.68-5.7-3.53l-4.5,1.07c1.36,4.49,4.41,7.08,8.86,7A11.21,11.21,0,0,0,91.37,22.86c-.07-4.89-3.69-8.77-8.23-8.7a9.57,9.57,0,0,0-3.79,1.41l2.54-8.78Z"/><path class="cls-1" d="M115.89,2.39l-15.71,0-.55,4.44,10.17-.16-8.17,8.85.92,2.46a4.91,4.91,0,0,1,5.69,5.07c.05,3.23-2.23,6.34-5.24,6.39S98.23,28,97.8,25.35l-4.35.92c1.21,4.94,4.65,7.74,9.34,7.67a10.44,10.44,0,0,0,10.35-10.69c-.06-4-2.37-6.86-5.43-7.74l7.55-9.25Z"/><path class="cls-1" d="M6.53,9.65a7.73,7.73,0,0,1,1.06,7.82C6.3,20.13,5,21.65,5,24.73c.08,5.4,5.23,7.74,7.88,8-1.48-8.8-1.79-10-1.67-21.19C11.2,9.5,10.87,9.49,6.53,9.65Z"/><path class="cls-1" d="M16,7.06c-.13-1.4-.16-2.57-.26-3.15C15.4,1.66,12.65.62,12.65.62V7S14,7,16,7.06Z"/><path class="cls-1" d="M16.28,9.4c-2.12,0-3.17-.44-3.24.72C12.4,22,16.62,37.66,18.24,45c.76,1.91-.69,2.4-.87,2.46a6.21,6.21,0,0,1-1.24.21,7.06,7.06,0,0,1-1.69-.2c1.56-.56.77-2.88,0-3.73a5.22,5.22,0,0,0-4-1.62,8.48,8.48,0,0,0-4.23.6C.68,45.57,5.58,51.8,13.16,51a12,12,0,0,0,5.26-1.55c1.39-1,2.4-2.81,2-4.34L17.73,34l4.71.92Z"/><path class="cls-1" d="M11.06,7.11c0-3.33,0-5.79,0-6.71a.4.4,0,0,0-.4-.4C6.28,0,3.75,1.38.08,6.54a.4.4,0,0,0,.47.61c1.29-.51,3-.2,6.54-.15C9.46,7,8.47,7,11.06,7.11Z"/></g></g></svg>